<svg xmlns="http://www.w3.org/2000/svg" xmlns:xlink="http://www.w3.org/1999/xlink" width="1330" height="255.39"><rect width="1330" height="255.39" rx="5" ry="5" class="a"/><svg y="0%" x="0%"><circle cx="20" cy="20" r="6" fill="#ff5f58"/><circle cx="40" cy="20" r="6" fill="#ffbd2e"/><circle cx="60" cy="20" r="6" fill="#18c132"/></svg><svg height="195.39" viewBox="0 0 129 19.539" width="1290" x="15" xmlns="http://www.w3.org/2000/svg" xmlns:xlink="http://www.w3.org/1999/xlink" y="50"><style>@keyframes l{0%{transform:translateX(0)}.16%{transform:translateX(-129px)}.18%{transform:translateX(-258px)}.19%{transform:translateX(-516px)}1.32%{transform:translateX(-645px)}65.88%{transform:translateX(-774px)}86.88%{transform:translateX(-903px)}86.89%{transform:translateX(-1032px)}88.19%{transform:translateX(-1290px)}89.66%{transform:translateX(-1419px)}to{transform:translateX(-1548px)}}.a{fill:#282d35}.f,.g,.h{fill:#71bef2;white-space:pre}.g,.h{fill:#b9c0cb}.h{fill:#66c2cd}</style><g font-family="Monaco,Consolas,Menlo,'Bitstream Vera Sans Mono','Powerline Symbols',monospace" font-size="1.67"><defs><symbol id="1"><text y="1.67" class="f">✡</text></symbol><symbol id="2"><text y="1.67" class="f">✡</text><text x="2.004" y="1.67" class="g">eval</text><text x="7.014" y="1.67" class="g">&quot;$(dsm</text><text x="14.028" y="1.67" class="g">env</text><text x="18.036" y="1.67" class="g">bash)&quot;</text></symbol><symbol id="3"><text y="1.67" class="f">✡</text><text x="2.004" y="1.67" class="g">dsm</text><text x="6.012" y="1.67" class="g">install</text><text x="14.028" y="1.67" class="g">latest</text></symbol><symbol id="4"><text y="1.67" class="g">Downloading</text><text x="12.024" y="1.67" class="g">Dart</text><text x="17.034" y="1.67" class="g">SDK</text><text x="21.042" y="1.67" class="h">3.0.5</text></symbol><symbol id="5"><text y="1.67" class="g">Extracting</text><text x="11.022" y="1.67" class="g">files</text></symbol><symbol id="6"><text y="1.67" class="g">Successfully</text><text x="13.026" y="1.67" class="g">installed</text><text x="23.046" y="1.67" class="g">Dart</text><text x="28.056" y="1.67" class="g">SDK</text><text x="32.064" y="1.67" style="white-space:pre" fill="#a8cc8c">latest-stable</text></symbol><symbol id="7"><text y="1.67" class="f">✡</text><text x="2.004" y="1.67" class="g">dsm</text><text x="6.012" y="1.67" class="g">use</text><text x="10.02" y="1.67" class="g">latest</text></symbol><symbol id="8"><text y="1.67" class="g">Successfully</text><text x="13.026" y="1.67" class="g">set</text><text x="17.034" y="1.67" class="h">latest-stable</text><text x="31.062" y="1.67" class="g">as</text><text x="34.068" y="1.67" class="g">current</text><text x="42.084" y="1.67" class="g">version</text></symbol><symbol id="9"><text y="1.67" class="f">✡</text><text x="2.004" y="1.67" class="g">dart</text><text x="7.014" y="1.67" class="g">--version</text></symbol><symbol id="10"><text y="1.67" class="g">Dart</text><text x="5.01" y="1.67" class="g">SDK</text><text x="9.018" y="1.67" class="g">version:</text><text x="18.036" y="1.67" class="g">3.0.5</text><text x="24.048" y="1.67" class="g">(stable)</text><text x="33.066" y="1.67" class="g">(Mon</text><text x="38.076" y="1.67" class="g">Jun</text><text x="42.084" y="1.67" class="g">12</text><text x="45.09" y="1.67" class="g">18:31:49</text><text x="54.108" y="1.67" class="g">2023</text><text x="59.118" y="1.67" class="g">+0000)</text><text x="66.132" y="1.67" class="g">on</text><text x="69.138" y="1.67" class="g">&quot;linux_x64&quot;</text></symbol><symbol id="a"><path fill="transparent" d="M0 0h129v9H0z"/></symbol><symbol id="b"><path fill="#6f7683" d="M0 0h1.102v2.171H0z"/></symbol></defs><path class="a" d="M0 0h129v19.539H0z"/><g style="animation-duration:19.366083s;animation-iteration-count:infinite;animation-name:l;animation-timing-function:steps(1,end)"><svg width="1677"><svg><use xlink:href="#a"/><use xlink:href="#b" x="-.004"/></svg><svg x="129"><use xlink:href="#a"/><use xlink:href="#b" x=".996"/><use xlink:href="#1"/></svg><svg x="258"><use xlink:href="#a"/><use xlink:href="#b" x="-.004" y="4.317"/><use xlink:href="#2"/></svg><svg x="387"><use xlink:href="#a"/><use xlink:href="#b" x=".996" y="4.317"/><use xlink:href="#2"/><use xlink:href="#1" y="4.342"/></svg><svg x="516"><use xlink:href="#a"/><use xlink:href="#b" x="-.004" y="8.659"/><use xlink:href="#2"/><use xlink:href="#3" y="4.342"/></svg><svg x="645"><use xlink:href="#a"/><use xlink:href="#b" x="-.004" y="10.83"/><use xlink:href="#2"/><use xlink:href="#3" y="4.342"/><use xlink:href="#4" y="8.684"/></svg><svg x="774"><use xlink:href="#a"/><use xlink:href="#b" x="-.004" y="13.001"/><use xlink:href="#2"/><use xlink:href="#3" y="4.342"/><use xlink:href="#4" y="8.684"/><use xlink:href="#5" y="10.855"/></svg><svg x="903"><use xlink:href="#a"/><use xlink:href="#b" x="-.004" y="15.172"/><use xlink:href="#2"/><use xlink:href="#3" y="4.342"/><use xlink:href="#4" y="8.684"/><use xlink:href="#5" y="10.855"/><use xlink:href="#6" y="13.026"/></svg><svg x="1032"><use xlink:href="#a"/><use xlink:href="#b" x="-.004" y="17.343"/><use xlink:href="#3" y="2.171"/><use xlink:href="#4" y="6.513"/><use xlink:href="#5" y="8.684"/><use xlink:href="#6" y="10.855"/><use xlink:href="#7" y="13.026"/></svg><svg x="1161"><use xlink:href="#a"/><use xlink:href="#b" x="-.004" y="17.343"/><use xlink:href="#3"/><use xlink:href="#4" y="4.342"/><use xlink:href="#5" y="6.513"/><use xlink:href="#6" y="8.684"/><use xlink:href="#7" y="10.855"/><use xlink:href="#8" y="15.197"/></svg><svg x="1290"><use xlink:href="#a"/><use xlink:href="#b" x="-.004" y="17.343"/><use xlink:href="#4"/><use xlink:href="#5" y="2.171"/><use xlink:href="#6" y="4.342"/><use xlink:href="#7" y="6.513"/><use xlink:href="#8" y="10.855"/><use xlink:href="#9" y="13.026"/></svg><svg x="1419"><use xlink:href="#a"/><use xlink:href="#b" x="-.004" y="17.343"/><use xlink:href="#5"/><use xlink:href="#6" y="2.171"/><use xlink:href="#7" y="4.342"/><use xlink:href="#8" y="8.684"/><use xlink:href="#9" y="10.855"/><use xlink:href="#10" y="15.197"/></svg><svg x="1548"><use xlink:href="#a"/><use xlink:href="#b" x="-.004" y="17.343"/><use xlink:href="#6"/><use xlink:href="#7" y="2.171"/><use xlink:href="#8" y="6.513"/><use xlink:href="#9" y="8.684"/><use xlink:href="#10" y="13.026"/></svg></svg></g></g></svg></svg>